<svg width="156" height="32" viewBox="0 0 156 32" fill="none" xmlns="http://www.w3.org/2000/svg">
<path d="M12.7387 13.9139H8.36921C6.68864 21.9373 5.81139 26.0961 5.81139 26.4237C5.81139 27.9382 7.66001 27.8312 9.40443 26.8015L10.5472 30.646C9.45821 31.5654 8.04318 31.9833 6.35589 31.9833C2.92418 31.9833 1.18312 30.1412 1.18312 26.8383C1.19656 26.0426 2.01668 21.7668 3.69724 13.9139H0L0.92431 9.4743H4.68205L5.60636 4.92771L6.69537 0H11.3774C11.2116 0.920462 10.8845 2.4906 10.396 4.7104L9.36074 9.4743H13.663L12.7387 13.9139Z" fill="#115D8C"/>
<path d="M31.8434 9.36063L29.8267 13.4225C29.1711 13.24 28.4897 13.1665 27.81 13.2052C25.8176 13.1961 23.8541 13.6798 22.0961 14.6126L18.6174 31.1341H13.9353L18.5602 9.47429H22.4255L22.3717 10.2332C23.806 9.44969 25.387 8.96794 27.0164 8.81784C28.6458 8.66773 30.2888 8.85249 31.8434 9.36063Z" fill="#115D8C"/>
<path d="M83.8736 21.2787C83.7658 21.9589 83.7107 22.6462 83.7089 23.3347C83.7089 26.1541 85.0153 27.5626 87.628 27.5604C90.8412 27.5604 92.9083 25.9357 93.399 23.6055L97.9702 24.0401C96.8274 29.3456 93.2915 32 87.4666 32C82.0216 32 79.0269 28.5332 79.0269 23.2812C79.0269 19.2695 80.2245 15.8585 82.6199 13.0481C85.0164 10.1797 88.1187 8.77226 91.8731 8.77226C97.0458 8.77226 99.4894 12.0351 99.4894 16.6218C99.463 18.1882 99.2806 19.7481 98.9449 21.2787H83.8736ZM85.1239 17.384H94.8712C94.978 16.885 95.0331 16.3765 95.0359 15.8663C95.0359 14.0811 93.8931 13.2152 91.5504 13.2152C88.6632 13.2119 86.539 14.6193 85.1239 17.384Z" fill="#115D8C"/>
<path d="M107.442 26.4104C107.442 26.1663 109.304 17.3305 113.021 0H108.349C107.478 4.06965 106.522 8.4736 105.482 13.2119C103.687 21.496 102.817 26.0426 102.817 26.855C102.817 30.158 104.558 32 107.99 32C109.67 32 111.089 31.5654 112.178 30.6628L111.035 26.8182C109.294 27.8278 107.442 27.9382 107.442 26.4104Z" fill="#115D8C"/>
<path d="M120.291 21.2787C120.184 21.9589 120.128 22.6462 120.127 23.3347C120.127 26.1541 121.433 27.5626 124.046 27.5604C127.259 27.5604 129.326 25.9357 129.817 23.6055L134.388 24.0401C133.245 29.3456 129.709 32 123.884 32C118.439 32 115.445 28.5332 115.445 23.2812C115.445 19.2695 116.642 15.8585 119.038 13.0481C121.434 10.1797 124.536 8.77226 128.294 8.77226C133.464 8.77226 135.914 12.0184 135.914 16.6218C135.887 18.1882 135.705 19.7481 135.369 21.2787H120.291ZM121.542 17.384H131.289C131.396 16.885 131.451 16.3765 131.454 15.8663C131.454 14.0811 130.311 13.2152 127.968 13.2152C125.081 13.2119 122.957 14.6193 121.542 17.384Z" fill="#115D8C"/>
<path d="M156 9.36065L153.983 13.4225C153.328 13.24 152.646 13.1665 151.967 13.2052C149.974 13.1962 148.011 13.6798 146.253 14.6126L142.77 31.1275H138.092L142.717 9.46762H146.582L146.545 10.2332C147.977 9.45204 149.555 8.97155 151.181 8.82146C152.808 8.67138 154.448 8.85489 156 9.36065Z" fill="#115D8C"/>
<path d="M28.4621 31.9532L26.2371 28.687L42.1352 6.38863C42.8003 5.4541 43.7223 4.73025 44.7906 4.3039C45.859 3.87755 47.0283 3.76681 48.1583 3.98495L54.2689 29.3422L51.7917 31.8997L39.1673 29.3891L28.4621 31.9532ZM39.5539 25.1634L49.3851 27.1191L45.1232 9.48433L32.966 26.5341L38.6161 25.1968L39.5539 25.1634Z" fill="#F25D27"/>
<path d="M59.2568 31.8462L53.1462 6.48892L55.6234 3.93146L68.2478 6.44212L78.9496 3.87798L81.1747 7.14417L65.2799 29.4425C64.614 30.3761 63.6919 31.0993 62.6238 31.5255C61.5557 31.9518 60.3868 32.0631 59.2568 31.8462ZM58.04 8.71208L62.2885 26.3468L74.4491 9.29711L68.7856 10.6544L67.8713 10.6745L58.04 8.71208Z" fill="#F25D27"/>
</svg>
